# xmcd
#
# Track frame offsets:
#	150
#	18385
#	37961
#	55556
#	75329
#	93089
#	112875
#	129563
#	146373
#	163156
#	185300
#	202250
#
# Disc length: 3056 seconds
#
# Revision: 2
# Processed by: cddbd v1.5.2PL0 Copyright (c) Steve Scherf et al.
# Submitted via: audiograbber 1.83.01
#
DISCID=8f0bee0c
DTITLE=Countrypolitans, The - Tired of drowning
DYEAR=1999
DGENRE=Country
TTITLE0=Tired of drowning
TTITLE1=Tears'll be pouring
TTITLE2=That train
TTITLE3=Will you welcome me home
TTITLE4=Come rollin' in
TTITLE5=Lights of the town
TTITLE6=Instant love
TTITLE7=I took the blame
TTITLE8=I can't behave
TTITLE9=Basic information
TTITLE10=Behind the night
TTITLE11=Truck drivin' daddy
EXTD=
EXTT0=
EXTT1=
EXTT2=
EXTT3=
EXTT4=
EXTT5=
EXTT6=
EXTT7=
EXTT8=
EXTT9=
EXTT10=
EXTT11=
PLAYORDER=
